<svg id="Capa_1" enable-background="new 0 0 512 512" height="512" viewBox="0 0 512 512" width="512" xmlns="http://www.w3.org/2000/svg"><g><path d="m335.651 329.775c12.647 21.842 24.965 43.88 36.898 66.146 12.679 23.592 24.846 47.488 36.519 71.679 3.662 7.642 7.288 15.306 10.846 23.011 4.612 9.987-2.719 21.389-13.719 21.389-4.747 0-9.229-2.225-12.07-6.028-5.08-6.8-10.094-13.638-15.069-20.5-15.707-21.788-30.921-43.871-45.622-66.258-14.728-22.371-29.039-44.991-42.967-67.839-3.482-5.712-6.955-11.43-10.382-17.175-.876-1.48-1.77-2.951-2.656-4.425l9.784-10.302h34.474z" fill="#4a80aa"/><path d="m335.651 329.775-10.47-10.302h-38.074l-9.676 10.302c.886 1.474 1.779 2.945 2.656 4.425 2.854 4.784 5.743 9.548 8.639 14.307h57.652c-3.551-6.258-7.122-12.505-10.727-18.732z" fill="#407093"/><path d="m254.784 485.565c-8.132 0-14.84-6.367-15.264-14.487l-7.383-141.302 6.062-10.302h31.264l7.968 10.302-7.383 141.302c-.424 8.12-7.132 14.487-15.264 14.487z" fill="#365e7d"/><path d="m233.116 348.507h43.336l.979-18.732-9.825-10.302h-27.86l-7.609 10.302z" fill="#2b4d66"/><path d="m173.917 329.775c-12.647 21.842-24.965 43.88-36.898 66.146-12.679 23.592-24.846 47.488-36.519 71.679-3.662 7.642-7.288 15.306-10.846 23.011-4.612 9.987 2.718 21.389 13.719 21.389 4.747 0 9.229-2.225 12.07-6.028 5.08-6.8 10.094-13.638 15.069-20.5 15.707-21.788 30.921-43.871 45.622-66.258 14.728-22.371 29.039-44.991 42.967-67.839 3.482-5.712 6.955-11.43 10.382-17.175.877-1.48 1.77-2.951 2.656-4.425l-13.229-10.302h-35.455z" fill="#4a80aa"/><path d="m163.191 348.507h57.652c2.896-4.759 5.785-9.523 8.639-14.307.877-1.48 1.77-2.951 2.656-4.425l-12.511-10.302h-38.074l-7.635 10.302c-3.606 6.227-7.177 12.474-10.727 18.732z" fill="#407093"/><path d="m433.856 292.311h-355.712c-8.864 0-16.05-7.186-16.05-16.05v-226.549c0-8.864 7.186-16.05 16.05-16.05h355.712c8.864 0 16.05 7.186 16.05 16.05v226.55c0 8.863-7.186 16.049-16.05 16.049z" fill="#fff6f4"/><path d="m433.856 33.662h-28.912c8.864 0 16.05 7.186 16.05 16.05v226.55c0 8.864-7.186 16.05-16.05 16.05h28.912c8.864 0 16.05-7.186 16.05-16.05v-226.551c0-8.864-7.186-16.049-16.05-16.049z" fill="#d8e2f1"/><path d="m278.702 33.662h-45.405v-10.96c.001-12.538 10.165-22.702 22.703-22.702 12.538 0 22.702 10.164 22.702 22.702z" fill="#365e7d"/><path d="m321.572 244.716c-43.715 18.295-87.429 18.295-131.144 0-4.217-1.765-6.976-5.88-6.976-10.452v-105.06h145.095v105.06c0 4.572-2.758 8.687-6.975 10.452z" fill="#4a80aa"/><path d="m312.76 129.204v98.328c0 4.572-2.758 8.687-6.976 10.452-39.486 16.525-78.971 18.119-118.456 4.791.908.795 1.947 1.458 3.1 1.941 43.715 18.295 87.429 18.295 131.144 0 4.217-1.765 6.976-5.88 6.976-10.452v-105.06z" fill="#407093"/><path d="m368.398 133.462c-67.308 37.038-126.961 53.837-126.961 53.837l-97.836-53.837c-1.747-.961-1.747-3.472 0-4.433l111.179-61.18c.759-.418 1.68-.418 2.439 0l111.179 61.18c1.747.961 1.747 3.471 0 4.433z" fill="#365e7d"/><path d="m368.398 129.029-111.178-61.18c-.759-.418-1.68-.418-2.439 0l-13.343 7.342 97.836 53.837c1.747.961 1.747 3.472 0 4.433l-97.836 53.837c12.911 6.669 13.646 8.518 15.782 7.342l111.179-61.18c1.746-.96 1.746-3.47-.001-4.431z" fill="#2b4d66"/><g><path d="m294.741 233.712c-4.268 0-7.726-3.459-7.726-7.726v-50.929l-40.441-38.195c-3.103-2.93-3.242-7.82-.312-10.922 2.929-3.105 7.82-3.241 10.922-.312l42.862 40.482c1.545 1.459 2.422 3.491 2.422 5.617v54.259c-.001 4.267-3.459 7.726-7.727 7.726z" fill="#407093"/></g><path d="m353.528 329.775h-195.056c-6.067 0-10.986-4.918-10.986-10.986v-26.479h217.027v26.479c.001 6.068-4.918 10.986-10.985 10.986z" fill="#9dc6fb"/><path d="m340.651 292.311v26.479c0 6.067-4.919 10.985-10.986 10.985h23.863c6.067 0 10.985-4.919 10.985-10.985v-26.479z" fill="#8993da"/><g><path d="m412.847 75.262h-35.765c-4.268 0-7.726-3.459-7.726-7.726 0-4.268 3.459-7.726 7.726-7.726h35.765c4.268 0 7.726 3.459 7.726 7.726s-3.459 7.726-7.726 7.726z" fill="#2b4d66"/></g></g></svg>